<svg width="1788" height="1173" xmlns="http://www.w3.org/2000/svg" xmlns:xlink="http://www.w3.org/1999/xlink" xml:space="preserve" overflow="hidden"><g transform="translate(-2383 -695)"><path d="M3793.42 1463.78 3963.58 1463.78 3963.58 1467.22 3793.42 1467.22ZM3798 1479.25 3770.5 1465.5 3798 1451.75ZM3959 1451.75 3986.5 1465.5 3959 1479.25Z"/><text font-family="Arial,Arial_MSFontService,sans-serif" font-weight="400" font-size="69" transform="matrix(1 0 0 1 3201.29 1666)">. . . .</text><path d="M2477.5 1724.5 2434.5 1637.5 2520.5 1637.5Z" stroke="#000000" stroke-width="3.4375" stroke-miterlimit="8" fill="#A9D18E" fill-rule="evenodd"/><path d="M2477.5 1637.5 2477.5 1767.5" stroke="#000000" stroke-width="3.4375" stroke-miterlimit="8" fill="none" fill-rule="evenodd"/><path d="M2649.5 1724.5 2606.5 1637.5 2692.5 1637.5Z" stroke="#000000" stroke-width="3.4375" stroke-miterlimit="8" fill="#A9D18E" fill-rule="evenodd"/><path d="M2649.5 1637.5 2649.5 1767.5" stroke="#000000" stroke-width="3.4375" stroke-miterlimit="8" fill="none" fill-rule="evenodd"/><path d="M2822 1724.5 2778.5 1637.5 2865.5 1637.5Z" stroke="#000000" stroke-width="3.4375" stroke-miterlimit="8" fill="#A9D18E" fill-rule="evenodd"/><path d="M2822.5 1637.5 2822.5 1767.5" stroke="#000000" stroke-width="3.4375" stroke-miterlimit="8" fill="none" fill-rule="evenodd"/><path d="M2994.5 1724.5 2951.5 1637.5 3037.5 1637.5Z" stroke="#000000" stroke-width="3.4375" stroke-miterlimit="8" fill="#A9D18E" fill-rule="evenodd"/><path d="M2994.5 1637.5 2994.5 1767.5" stroke="#000000" stroke-width="3.4375" stroke-miterlimit="8" fill="none" fill-rule="evenodd"/><path d="M3770.5 1724.5 3727.5 1637.5 3813.5 1637.5Z" stroke="#000000" stroke-width="3.4375" stroke-miterlimit="8" fill="#A9D18E" fill-rule="evenodd"/><path d="M3770.5 1637.5 3770.5 1767.5" stroke="#000000" stroke-width="3.4375" stroke-miterlimit="8" fill="none" fill-rule="evenodd"/><path d="M3986.5 1724.5 3943.5 1637.5 4029.5 1637.5Z" stroke="#000000" stroke-width="3.4375" stroke-miterlimit="8" fill="#A9D18E" fill-rule="evenodd"/><path d="M3986.5 1637.5 3986.5 1767.5" stroke="#000000" stroke-width="3.4375" stroke-miterlimit="8" fill="none" fill-rule="evenodd"/><path d="M2.29167-1.14506e-06 2.29202 699.358-2.29132 699.358-2.29167 1.14506e-06ZM13.7503 694.775 0.000360892 722.275-13.7497 694.775Z" transform="matrix(1 0 0 -1 2477.5 1594.77)"/><path d="M2477.5 1592.21 4119.8 1592.21 4119.8 1596.79 2477.5 1596.79ZM4115.22 1580.75 4142.72 1594.5 4115.22 1608.25Z"/><path d="M2477.53 1313.78 2488.08 1313.98 2498.63 1314.58 2509.12 1315.58 2519.54 1316.97 2529.9 1318.75 2540.16 1320.92 2550.34 1323.47 2560.42 1326.4 2580.17 1333.38 2599.39 1341.85 2616.09 1351.06 2614.43 1354.07 2597.8 1344.89 2597.94 1344.96 2578.84 1336.55 2578.96 1336.6 2559.32 1329.66 2559.41 1329.69 2549.41 1326.78 2549.47 1326.79 2539.36 1324.26 2539.42 1324.27 2529.22 1322.12 2529.28 1322.13 2518.99 1320.36 2519.06 1320.37 2508.7 1318.99 2508.76 1319 2498.33 1318.01 2498.4 1318.01 2487.92 1317.42 2487.99 1317.42 2477.47 1317.22ZM2618.52 1338.44 2634.82 1364.51 2604.19 1361.91Z"/><path d="M3770 1398 3770 1593.77" stroke="#000000" stroke-width="2.29167" stroke-miterlimit="8" fill="none" fill-rule="evenodd"/><path d="M3992 1398 3992 1593.77" stroke="#000000" stroke-width="2.29167" stroke-miterlimit="8" fill="none" fill-rule="evenodd"/><path d="M2479.7 1802.65 2481.93 1802.65C2481.77 1805.24 2481.69 1808.83 2481.69 1813.43L2481.69 1848.04C2481.69 1849.6 2481.78 1850.78 2481.95 1851.58 2482.13 1852.38 2482.44 1853.03 2482.89 1853.53 2483.33 1854.03 2483.97 1854.42 2484.81 1854.7 2485.65 1854.99 2486.7 1855.2 2487.97 1855.35 2489.24 1855.5 2490.92 1855.6 2493 1855.65L2493 1858.61 2463.05 1858.61 2463.05 1855.65C2466.05 1855.52 2468.19 1855.34 2469.47 1855.11 2470.75 1854.88 2471.73 1854.53 2472.41 1854.07 2473.08 1853.61 2473.58 1852.97 2473.89 1852.13 2474.2 1851.29 2474.35 1849.93 2474.35 1848.04L2474.35 1815.17C2474.35 1814.09 2474.17 1813.3 2473.79 1812.8 2473.41 1812.3 2472.85 1812.05 2472.13 1812.05 2471.26 1812.05 2470.03 1812.49 2468.44 1813.38 2466.84 1814.28 2464.87 1815.51 2462.52 1817.07L2460.74 1813.95Z" fill-rule="evenodd"/><text fill="#000000" fill-opacity="0" font-family="Arial,Arial_MSFontService,sans-serif" font-size="55.9683" x="2460.74" y="1851.62">1</text><path d="M2650.74 1802.65C2655.76 1802.65 2659.56 1803.75 2662.13 1805.95 2664.69 1808.15 2665.98 1811.34 2665.98 1815.53 2665.98 1816.96 2665.83 1818.28 2665.55 1819.48 2665.27 1820.69 2664.82 1821.88 2664.21 1823.05 2663.61 1824.23 2662.79 1825.49 2661.76 1826.84 2660.73 1828.19 2659.6 1829.56 2658.36 1830.95 2657.11 1832.34 2654.97 1834.66 2651.91 1837.9 2646.78 1843.33 2643.01 1848.08 2640.61 1852.13L2655.88 1852.13C2657.21 1852.13 2658.28 1852.05 2659.09 1851.89 2659.9 1851.72 2660.55 1851.45 2661.03 1851.08 2661.52 1850.7 2661.9 1850.2 2662.19 1849.6 2662.47 1848.99 2662.83 1848.05 2663.26 1846.78L2666.71 1846.78 2666.02 1858.61 2632.66 1858.61 2632.66 1856.67C2633.82 1853.83 2635.39 1850.93 2637.36 1847.95 2639.34 1844.98 2642.13 1841.48 2645.75 1837.46 2648.89 1834 2651.14 1831.38 2652.52 1829.6 2654.03 1827.65 2655.16 1825.97 2655.91 1824.55 2656.65 1823.13 2657.18 1821.79 2657.51 1820.54 2657.83 1819.28 2657.99 1818.02 2657.99 1816.75 2657.99 1814.72 2657.67 1812.93 2657.02 1811.38 2656.37 1809.83 2655.38 1808.6 2654.04 1807.71 2652.7 1806.82 2651.02 1806.37 2649 1806.37 2643.94 1806.37 2640.54 1809.18 2638.78 1814.8L2633.88 1814.8 2633.88 1807.02C2637.15 1805.48 2640.21 1804.37 2643.06 1803.68 2645.91 1802.99 2648.47 1802.65 2650.74 1802.65Z" fill-rule="evenodd"/><text fill="#000000" fill-opacity="0" font-family="Arial,Arial_MSFontService,sans-serif" font-size="55.9683" x="2632.66" y="1851.62">2</text><path d="M2824.49 1802.65C2827.54 1802.65 2830.21 1803.12 2832.51 1804.06 2834.81 1805.01 2836.56 1806.37 2837.78 1808.14 2839 1809.91 2839.6 1812.02 2839.6 1814.48 2839.6 1816.78 2839.14 1818.8 2838.23 1820.54 2837.31 1822.28 2836.02 1823.8 2834.36 1825.1 2832.69 1826.39 2830.54 1827.66 2827.89 1828.91L2827.89 1829.27C2829.54 1829.57 2831.13 1830.08 2832.65 1830.79 2834.18 1831.51 2835.54 1832.43 2836.73 1833.57 2837.91 1834.7 2838.87 1836.06 2839.58 1837.64 2840.3 1839.22 2840.66 1841.02 2840.66 1843.05 2840.66 1846.19 2839.98 1848.97 2838.61 1851.4 2837.25 1853.83 2835.16 1855.75 2832.35 1857.15 2829.54 1858.56 2826.12 1859.26 2822.1 1859.26 2819.77 1859.26 2817.27 1859 2814.58 1858.47 2811.89 1857.94 2809.42 1857.25 2807.18 1856.38L2807.18 1847.79 2812.04 1847.79C2812.99 1850.6 2814.24 1852.64 2815.79 1853.91 2817.35 1855.18 2819.46 1855.82 2822.14 1855.82 2825.65 1855.82 2828.3 1854.86 2830.1 1852.94 2831.9 1851.02 2832.79 1848.18 2832.79 1844.43 2832.79 1840.48 2831.61 1837.47 2829.23 1835.39 2826.85 1833.31 2823.37 1832.27 2818.77 1832.27L2815.12 1832.27 2815.12 1828.7C2818.77 1828.49 2821.85 1827.79 2824.34 1826.6 2826.84 1825.41 2828.7 1823.88 2829.92 1822.02 2831.13 1820.15 2831.74 1818.06 2831.74 1815.74 2831.74 1812.74 2830.94 1810.43 2829.35 1808.81 2827.76 1807.18 2825.43 1806.37 2822.38 1806.37 2819.84 1806.37 2817.77 1807.06 2816.18 1808.44 2814.58 1809.82 2813.41 1811.93 2812.65 1814.76L2807.79 1814.76 2807.79 1807.06C2810.92 1805.58 2813.86 1804.47 2816.58 1803.74 2819.31 1803.01 2821.95 1802.65 2824.49 1802.65Z" fill-rule="evenodd"/><text fill="#000000" fill-opacity="0" font-family="Arial,Arial_MSFontService,sans-serif" font-size="56.6167" x="2807.18" y="1852.18">3</text><path d="M3000.91 1812.17 2985.06 1837.34 2985.06 1837.9 3000.91 1837.9 3000.91 1827.81C3000.91 1825.27 3000.95 1822.43 3001.03 1819.28 3001.11 1816.13 3001.21 1813.76 3001.32 1812.17ZM3002.09 1803.01 3007.88 1803.01 3007.88 1837.9 3008.73 1837.9C3010.3 1837.9 3011.42 1837.79 3012.1 1837.56 3012.77 1837.33 3013.33 1836.92 3013.78 1836.34 3014.22 1835.76 3014.64 1834.81 3015.01 1833.49L3018.09 1833.49 3017.61 1841.84 3007.88 1841.84 3007.88 1848.48C3007.88 1850.29 3007.94 1851.62 3008.06 1852.45 3008.19 1853.29 3008.39 1853.95 3008.67 1854.44 3008.96 1854.93 3009.37 1855.33 3009.93 1855.65 3010.48 1855.98 3011.38 1856.3 3012.62 1856.63L3012.62 1858.61 2996.17 1858.61 2996.17 1856.63C2997.84 1856.2 2998.97 1855.72 2999.53 1855.19 3000.1 1854.66 3000.47 1853.91 3000.65 1852.94 3000.82 1851.97 3000.91 1850.48 3000.91 1848.48L3000.91 1841.84 2978.38 1841.84 2978.38 1838.8Z" fill-rule="evenodd"/><text fill="#000000" fill-opacity="0" font-family="Arial,Arial_MSFontService,sans-serif" font-size="55.6035" x="2978.38" y="1851.66">4</text><path d="M3691.64 1803.29 3704.57 1803.29 3715.27 1834.86C3716.81 1839.4 3718 1843.24 3718.83 1846.37L3719.28 1846.37C3719.5 1844.73 3719.99 1841.98 3720.76 1838.15 3721.53 1834.31 3722.24 1830.96 3722.89 1828.1L3725.72 1815.33C3726.32 1812.66 3726.61 1810.48 3726.61 1808.81 3726.61 1807.54 3726.3 1806.65 3725.66 1806.15 3725.03 1805.65 3724.02 1805.36 3722.64 1805.28L3723.09 1803.29 3737.27 1803.29 3736.83 1805.28C3735.8 1805.5 3735.06 1805.74 3734.62 1806.01 3734.17 1806.28 3733.77 1806.68 3733.42 1807.22 3733.07 1807.77 3732.71 1808.61 3732.33 1809.76 3731.95 1810.91 3731.48 1812.78 3730.91 1815.37L3721.39 1858.61 3715.88 1858.61 3704.04 1823.84C3702.61 1819.68 3701.35 1815.53 3700.27 1811.4L3699.75 1811.4C3699.58 1812.78 3699.14 1815.4 3698.41 1819.28 3697.68 1823.16 3696.91 1826.95 3696.1 1830.65L3692.53 1846.82C3691.96 1849.39 3691.68 1851.49 3691.68 1853.14 3691.68 1854.36 3691.98 1855.22 3692.59 1855.72 3693.2 1856.22 3694.22 1856.52 3695.65 1856.63L3695.21 1858.61 3681.02 1858.61 3681.47 1856.63C3682.49 1856.47 3683.26 1856.2 3683.78 1855.84 3684.29 1855.47 3684.72 1854.97 3685.07 1854.32 3685.43 1853.67 3685.75 1852.88 3686.05 1851.95 3686.34 1851.01 3686.79 1849.21 3687.38 1846.54L3694.27 1815.33C3694.54 1814.17 3694.76 1813.06 3694.92 1812.01 3695.08 1810.95 3695.17 1809.89 3695.17 1808.81 3695.17 1807.54 3694.85 1806.65 3694.21 1806.15 3693.58 1805.65 3692.57 1805.36 3691.19 1805.28Z" fill-rule="evenodd"/><text fill="#000000" fill-opacity="0" font-family="Arial,Arial_MSFontService,sans-serif" font-size="55.3198" x="3681.02" y="1851.7">𝑁</text><path d="M3765.34 1832.19 3815.27 1832.19 3815.27 1837.58 3765.34 1837.58Z" fill-rule="evenodd"/><text fill="#000000" fill-opacity="0" font-family="Arial,Arial_MSFontService,sans-serif" font-size="5.39014" x="3765.34" y="1836.91">−</text><path d="M3865.69 1802.65 3867.92 1802.65C3867.75 1805.24 3867.67 1808.83 3867.67 1813.43L3867.67 1848.04C3867.67 1849.6 3867.76 1850.78 3867.94 1851.58 3868.11 1852.38 3868.42 1853.03 3868.87 1853.53 3869.31 1854.03 3869.96 1854.42 3870.79 1854.7 3871.63 1854.99 3872.69 1855.2 3873.96 1855.35 3875.23 1855.5 3876.9 1855.6 3878.98 1855.65L3878.98 1858.61 3849.03 1858.61 3849.03 1855.65C3852.03 1855.52 3854.17 1855.34 3855.45 1855.11 3856.74 1854.88 3857.72 1854.53 3858.39 1854.07 3859.07 1853.61 3859.56 1852.97 3859.87 1852.13 3860.18 1851.29 3860.34 1849.93 3860.34 1848.04L3860.34 1815.17C3860.34 1814.09 3860.15 1813.3 3859.77 1812.8 3859.39 1812.3 3858.84 1812.05 3858.11 1812.05 3857.24 1812.05 3856.02 1812.49 3854.42 1813.38 3852.83 1814.28 3850.85 1815.51 3848.5 1817.07L3846.72 1813.95Z" fill-rule="evenodd"/><text fill="#000000" fill-opacity="0" font-family="Arial,Arial_MSFontService,sans-serif" font-size="55.9683" x="3846.72" y="1851.62">1</text><path d="M3985.14 1803.29 3998.07 1803.29 4008.77 1834.86C4010.31 1839.4 4011.49 1843.24 4012.33 1846.37L4012.78 1846.37C4012.99 1844.73 4013.49 1841.98 4014.26 1838.15 4015.03 1834.31 4015.74 1830.96 4016.39 1828.1L4019.22 1815.33C4019.82 1812.66 4020.11 1810.48 4020.11 1808.81 4020.11 1807.54 4019.8 1806.65 4019.16 1806.15 4018.53 1805.65 4017.52 1805.36 4016.14 1805.28L4016.59 1803.29 4030.77 1803.29 4030.33 1805.28C4029.3 1805.5 4028.56 1805.74 4028.12 1806.01 4027.67 1806.28 4027.27 1806.68 4026.92 1807.22 4026.57 1807.77 4026.21 1808.61 4025.83 1809.76 4025.45 1810.91 4024.98 1812.78 4024.41 1815.37L4014.89 1858.61 4009.37 1858.61 3997.54 1823.84C3996.11 1819.68 3994.85 1815.53 3993.77 1811.4L3993.24 1811.4C3993.08 1812.78 3992.64 1815.4 3991.91 1819.28 3991.18 1823.16 3990.41 1826.95 3989.6 1830.65L3986.03 1846.82C3985.46 1849.39 3985.18 1851.49 3985.18 1853.14 3985.18 1854.36 3985.48 1855.22 3986.09 1855.72 3986.7 1856.22 3987.72 1856.52 3989.15 1856.63L3988.71 1858.61 3974.52 1858.61 3974.97 1856.63C3975.99 1856.47 3976.76 1856.2 3977.28 1855.84 3977.79 1855.47 3978.22 1854.97 3978.57 1854.32 3978.92 1853.67 3979.25 1852.88 3979.55 1851.95 3979.84 1851.01 3980.29 1849.21 3980.88 1846.54L3987.77 1815.33C3988.04 1814.17 3988.26 1813.06 3988.42 1812.01 3988.58 1810.95 3988.66 1809.89 3988.66 1808.81 3988.66 1807.54 3988.35 1806.65 3987.71 1806.15 3987.08 1805.65 3986.07 1805.36 3984.69 1805.28Z" fill-rule="evenodd"/><text fill="#000000" fill-opacity="0" font-family="Arial,Arial_MSFontService,sans-serif" font-size="55.3198" x="3974.52" y="1851.7">𝑁</text><path d="M2796.98 787.581 3988.69 1591.4" stroke="#4472C4" stroke-width="10.3125" stroke-miterlimit="8" fill="none" fill-rule="evenodd"/><path d="M2.29167-1.14506e-06 2.29202 699.358-2.29132 699.358-2.29167 1.14506e-06ZM13.7503 694.775 0.000360892 722.275-13.7497 694.775Z" transform="matrix(0.829038 0.559193 0.559193 -0.829038 2476.67 1594.26)"/><path d="M0 0 0.000360892 1080.88" stroke="#000000" stroke-width="4.58333" stroke-miterlimit="8" stroke-dasharray="18.3333 13.75" fill="none" fill-rule="evenodd" transform="matrix(0.829038 0.559193 0.559193 -0.829038 2476.67 1594.26)"/><path d="M2836.56 901.661C2834.5 901.661 2833.12 901.688 2832.42 901.742L2827.68 923.667 2830.23 923.667C2833.72 923.667 2836.44 923.133 2838.4 922.066 2840.36 920.999 2841.92 919.371 2843.08 917.183 2844.24 914.994 2844.82 912.427 2844.82 909.482 2844.82 906.862 2844.16 904.903 2842.84 903.606 2841.51 902.309 2839.42 901.661 2836.56 901.661ZM2816.74 896.919 2836.96 896.919C2839.77 896.919 2842.06 897.007 2843.83 897.182 2845.6 897.358 2847.33 897.763 2849.02 898.398 2850.71 899.033 2852.11 899.85 2853.21 900.85 2854.32 901.85 2855.17 903.059 2855.77 904.477 2856.36 905.896 2856.66 907.524 2856.66 909.361 2856.66 913.441 2855.46 916.899 2853.05 919.736 2850.65 922.573 2846.99 924.842 2842.07 926.544L2842.11 926.909C2843.73 928.233 2844.91 929.51 2845.65 930.739 2846.4 931.968 2847.03 933.758 2847.54 936.109L2848.71 941.783C2849.15 943.836 2849.56 945.302 2849.95 946.18 2850.34 947.058 2850.87 947.774 2851.53 948.328 2852.19 948.882 2853.1 949.294 2854.27 949.564L2853.7 952.239 2839.23 952.239C2838.34 949.699 2837.56 946.686 2836.88 943.201L2835.58 936.474C2835.21 934.447 2834.76 932.853 2834.25 931.691 2833.73 930.53 2833.08 929.692 2832.3 929.179 2831.52 928.665 2830.46 928.409 2829.14 928.409L2826.63 928.409 2823.71 941.296C2823.52 942.188 2823.38 942.958 2823.3 943.606 2823.22 944.255 2823.18 945.065 2823.18 946.038 2823.18 947.281 2823.5 948.159 2824.13 948.672 2824.77 949.186 2825.76 949.483 2827.11 949.564L2826.55 952.239 2805.59 952.239 2806.16 949.564C2807.7 949.132 2808.84 948.375 2809.56 947.294 2810.29 946.214 2810.98 944.214 2811.63 941.296L2819.01 907.861C2819.36 906.267 2819.53 904.687 2819.53 903.12 2819.53 901.985 2819.27 901.154 2818.74 900.627 2818.22 900.1 2817.36 899.756 2816.17 899.594Z" fill-rule="evenodd"/><text fill="#000000" fill-opacity="0" font-family="Arial,Arial_MSFontService,sans-serif" font-size="55.3198" x="2805.59" y="945.324">𝑹</text><path d="M2539.3 1286.65C2538.03 1292.51 2537.4 1297.44 2537.4 1301.44 2537.4 1304.46 2537.86 1306.69 2538.78 1308.11 2539.69 1309.52 2541.18 1310.23 2543.23 1310.23 2546.26 1310.23 2549.13 1308.2 2551.85 1304.13 2554.56 1300.07 2556.86 1294.24 2558.76 1286.65ZM2555.92 1259.33C2552.76 1259.33 2549.83 1261.33 2547.15 1265.33 2544.46 1269.33 2542.17 1275.06 2540.28 1282.51L2559.69 1282.51C2560.96 1276.81 2561.59 1271.91 2561.59 1267.8 2561.59 1264.96 2561.13 1262.84 2560.22 1261.44 2559.3 1260.03 2557.86 1259.33 2555.92 1259.33ZM2556.41 1256.05C2564.24 1256.05 2568.16 1261.02 2568.16 1270.96 2568.16 1273.77 2567.84 1277.13 2567.21 1281.03 2566.57 1284.94 2565.56 1288.92 2564.19 1292.97 2562.81 1297.02 2561.07 1300.61 2558.96 1303.73 2556.85 1306.85 2554.42 1309.26 2551.66 1310.96 2548.91 1312.66 2545.94 1313.52 2542.75 1313.52 2538.72 1313.52 2535.72 1312.29 2533.75 1309.83 2531.78 1307.37 2530.79 1303.68 2530.79 1298.76 2530.79 1296.09 2531.09 1292.79 2531.68 1288.88 2532.28 1284.96 2533.26 1280.95 2534.62 1276.86 2535.99 1272.77 2537.74 1269.13 2539.89 1265.96 2542.04 1262.78 2544.51 1260.34 2547.31 1258.62 2550.1 1256.91 2553.14 1256.05 2556.41 1256.05Z" fill-rule="evenodd"/><text fill="#000000" fill-opacity="0" font-family="Arial,Arial_MSFontService,sans-serif" font-size="57.4678" x="2530.79" y="1306.33">𝜃</text><path d="M3873.85 1408.6C3871.1 1408.6 3868.63 1409.72 3866.44 1411.95 3864.25 1414.17 3862.53 1417.18 3861.27 1420.96 3860.01 1424.74 3859.39 1428.51 3859.39 1432.27 3859.39 1435.08 3859.77 1437.18 3860.54 1438.57 3861.31 1439.96 3862.6 1440.66 3864.41 1440.66 3865.25 1440.66 3866.1 1440.48 3866.96 1440.11 3867.83 1439.75 3868.73 1439.16 3869.66 1438.35 3870.59 1437.54 3871.51 1436.55 3872.41 1435.39 3873.32 1434.23 3874.15 1433.06 3874.91 1431.88 3875.66 1430.71 3876.37 1429.32 3877.01 1427.71 3877.66 1426.1 3878.22 1424.16 3878.68 1421.89L3879.04 1420.15C3879.45 1418.21 3879.65 1416.37 3879.65 1414.64 3879.65 1412.53 3879.2 1411 3878.31 1410.04 3877.42 1409.08 3875.93 1408.6 3873.85 1408.6ZM3890.83 1386.88 3893.23 1386.88 3883.13 1431.74C3882.54 1434.39 3882.24 1436.39 3882.24 1437.74 3882.24 1438.82 3882.42 1439.6 3882.77 1440.09 3883.12 1440.58 3883.67 1440.82 3884.43 1440.82 3885.24 1440.82 3886.11 1440.49 3887.02 1439.83 3887.94 1439.17 3889.24 1437.9 3890.92 1436.04L3893.23 1438.31C3890.74 1440.93 3888.65 1442.78 3886.94 1443.86 3885.24 1444.94 3883.4 1445.48 3881.43 1445.48 3879.76 1445.48 3878.42 1444.93 3877.42 1443.82 3876.42 1442.71 3875.92 1441.24 3875.92 1439.4 3875.92 1437.92 3876.23 1436.34 3876.85 1434.66L3876.33 1434.5C3873.73 1438.28 3871.27 1441.05 3868.95 1442.81 3866.63 1444.56 3864.17 1445.44 3861.57 1445.44 3858.6 1445.44 3856.3 1444.32 3854.66 1442.08 3853.03 1439.83 3852.21 1436.69 3852.21 1432.63 3852.21 1427.99 3853.12 1423.52 3854.95 1419.24 3856.77 1414.96 3859.28 1411.58 3862.47 1409.11 3865.65 1406.64 3869.21 1405.4 3873.12 1405.4 3874.77 1405.4 3876.29 1405.57 3877.68 1405.91 3879.07 1406.24 3880.5 1406.83 3881.96 1407.67L3884.07 1398.31C3884.28 1397.42 3884.47 1396.43 3884.63 1395.35 3884.8 1394.27 3884.88 1393.32 3884.88 1392.51 3884.88 1391.7 3884.73 1391.09 3884.43 1390.67 3884.13 1390.25 3883.71 1389.95 3883.15 1389.76 3882.6 1389.57 3881.61 1389.43 3880.18 1389.35L3880.66 1387.24Z" fill-rule="evenodd"/><text fill="#000000" fill-opacity="0" font-family="Arial,Arial_MSFontService,sans-serif" font-size="58.6025" x="3852.21" y="1438.16">𝑑</text><path d="M4114.39 1529.62C4115.23 1529.62 4115.96 1529.71 4116.6 1529.9 4117.23 1530.09 4117.8 1530.38 4118.28 1530.78 4118.77 1531.17 4119.2 1531.67 4119.58 1532.29 4119.96 1532.92 4120.32 1533.76 4120.67 1534.83 4121.02 1535.9 4121.35 1537.22 4121.67 1538.8 4121.98 1540.38 4122.25 1542.02 4122.5 1543.72L4122.9 1543.72C4125.5 1540.08 4127.46 1537.41 4128.8 1535.72 4130.14 1534.03 4131.26 1532.77 4132.18 1531.95 4133.1 1531.13 4133.99 1530.55 4134.84 1530.21 4135.69 1529.87 4136.82 1529.7 4138.22 1529.7 4139.49 1529.7 4140.53 1529.86 4141.34 1530.19L4139.72 1537.52 4136.88 1537.52C4136.72 1536.39 4136.25 1535.82 4135.47 1535.82 4135.22 1535.82 4134.97 1535.86 4134.7 1535.94 4134.43 1536.02 4134.09 1536.2 4133.7 1536.47 4133.31 1536.74 4132.74 1537.27 4131.98 1538.05 4131.22 1538.83 4130.37 1539.79 4129.43 1540.93 4128.48 1542.06 4127.51 1543.25 4126.51 1544.49L4123.75 1547.94C4124.24 1550.53 4124.7 1552.77 4125.13 1554.67 4125.56 1556.56 4125.95 1558.13 4126.29 1559.39 4126.62 1560.64 4126.92 1561.64 4127.18 1562.37 4127.43 1563.1 4127.71 1563.64 4128.01 1564.01 4128.31 1564.37 4128.61 1564.63 4128.92 1564.78 4129.23 1564.93 4129.59 1565 4129.99 1565 4130.72 1565 4131.43 1564.72 4132.12 1564.15 4132.81 1563.58 4133.8 1562.3 4135.1 1560.3L4137.73 1562.04C4135.84 1564.85 4134.13 1566.83 4132.61 1567.98 4131.08 1569.13 4129.26 1569.7 4127.16 1569.7 4126 1569.7 4125.01 1569.49 4124.2 1569.07 4123.39 1568.65 4122.69 1567.99 4122.09 1567.07 4121.5 1566.15 4120.97 1564.72 4120.51 1562.77 4119.67 1559.31 4119.16 1556.67 4118.97 1554.83L4118.57 1554.83C4115.7 1558.85 4113.57 1561.74 4112.18 1563.5 4110.79 1565.26 4109.64 1566.55 4108.74 1567.39 4107.83 1568.23 4106.95 1568.82 4106.1 1569.15 4105.25 1569.49 4104.12 1569.66 4102.72 1569.66 4101.45 1569.66 4100.41 1569.5 4099.6 1569.17L4101.22 1561.84 4104.06 1561.84C4104.22 1562.97 4104.69 1563.54 4105.48 1563.54 4105.85 1563.54 4106.25 1563.44 4106.67 1563.24 4107.09 1563.03 4107.69 1562.55 4108.47 1561.78 4109.26 1561.01 4110.34 1559.8 4111.72 1558.15 4113.09 1556.5 4115.09 1554.03 4117.71 1550.73 4117.31 1548.6 4116.89 1546.55 4116.46 1544.57 4116.03 1542.6 4115.58 1540.77 4115.12 1539.06 4114.66 1537.36 4114.28 1536.25 4113.99 1535.72 4113.69 1535.19 4113.37 1534.83 4113.03 1534.63 4112.7 1534.42 4112.27 1534.32 4111.76 1534.32 4111.19 1534.32 4110.68 1534.45 4110.22 1534.71 4109.76 1534.96 4109.26 1535.41 4108.72 1536.04 4108.18 1536.68 4107.46 1537.67 4106.57 1539.02L4103.94 1537.28C4105.64 1534.71 4107.27 1532.79 4108.84 1531.52 4110.41 1530.26 4112.26 1529.62 4114.39 1529.62Z" fill-rule="evenodd"/><text fill="#000000" fill-opacity="0" font-family="Arial,Arial_MSFontService,sans-serif" font-size="40.0815" x="4099.6" y="1564.69">𝑥</text><path d="M2436.4 810.505C2437.51 810.505 2438.46 810.654 2439.24 810.951 2439.78 811.167 2440.32 811.525 2440.86 812.025 2441.4 812.525 2441.88 813.22 2442.3 814.112 2442.72 815.004 2443.08 816.003 2443.39 817.111 2443.71 818.219 2444.05 819.813 2444.43 821.893 2445.08 825.379 2445.7 829.046 2446.31 832.896 2446.92 836.746 2447.44 840.32 2447.87 843.616 2450.49 839.833 2452.72 836.132 2454.54 832.511 2456.36 828.891 2457.67 825.743 2458.47 823.068 2459.27 820.394 2459.67 818.219 2459.67 816.544 2459.67 815.274 2459.4 814.409 2458.86 813.95 2458.32 813.491 2457.4 813.22 2456.1 813.139L2456.51 811.153 2467.16 811.153 2468.26 813.18C2466.2 818.8 2463.42 824.811 2459.91 831.214 2456.45 837.483 2452.49 843.724 2448.03 849.938 2443.77 855.855 2440.21 860.138 2437.38 862.785 2435.4 864.596 2433.5 865.892 2431.66 866.676 2430.2 867.27 2428.65 867.568 2427 867.568 2426.43 867.568 2425.78 867.52 2425.04 867.426 2424.29 867.331 2423.72 867.203 2423.31 867.041L2425.06 859.178 2428.26 859.178C2428.26 860.908 2428.85 861.772 2430.04 861.772 2431.61 861.772 2433.43 860.793 2435.51 858.834 2437.59 856.875 2440.04 853.923 2442.85 849.979 2442.06 845.25 2441 839.55 2439.65 832.876 2438.21 825.743 2437.27 821.326 2436.81 819.624 2436.24 817.57 2435.65 816.26 2435.03 815.693 2434.65 815.341 2434.17 815.166 2433.61 815.166 2432.74 815.166 2431.93 815.517 2431.18 816.219 2430.42 816.922 2429.49 818.138 2428.38 819.867L2425.74 818.124C2427.61 815.341 2429.35 813.376 2430.97 812.227 2432.59 811.079 2434.4 810.505 2436.4 810.505Z" fill-rule="evenodd"/><text fill="#000000" fill-opacity="0" font-family="Arial,Arial_MSFontService,sans-serif" font-size="57.0625" x="2423.31" y="860.435">𝑦</text><path d="M2399.42 1573.18 2428.23 1573.18 2429 1575.21 2409.67 1597.41C2405.92 1601.71 2402.66 1605.36 2399.9 1608.36L2400.15 1608.64 2409.31 1608.64C2410.93 1608.64 2412.17 1608.55 2413.04 1608.38 2413.9 1608.2 2414.66 1607.87 2415.3 1607.38 2415.95 1606.9 2416.62 1606.16 2417.31 1605.18 2418 1604.19 2418.86 1602.64 2419.88 1600.53L2423.49 1600.53 2421.02 1611.92 2391.68 1611.92 2390.91 1609.94 2413.08 1584.4C2416.21 1580.81 2418.51 1578.26 2419.97 1576.75L2419.72 1576.46 2410.24 1576.46C2408.83 1576.46 2407.81 1576.56 2407.16 1576.75 2406.51 1576.93 2405.86 1577.27 2405.21 1577.74 2404.56 1578.21 2403.87 1578.91 2403.13 1579.85 2402.38 1580.78 2401.55 1582.11 2400.63 1583.84L2397.03 1583.84Z" fill-rule="evenodd"/><text fill="#000000" fill-opacity="0" font-family="Arial,Arial_MSFontService,sans-serif" font-size="38.7441" x="2390.91" y="1607.08">𝑧</text><path d="M2450.5 1592C2450.5 1576.81 2462.81 1564.5 2478 1564.5 2493.19 1564.5 2505.5 1576.81 2505.5 1592 2505.5 1607.19 2493.19 1619.5 2478 1619.5 2462.81 1619.5 2450.5 1607.19 2450.5 1592Z" stroke="#000000" stroke-width="4.58333" stroke-miterlimit="8" fill="#FFFFFF" fill-rule="evenodd"/><path d="M2461 1591.5C2461 1582.39 2468.39 1575 2477.5 1575 2486.61 1575 2494 1582.39 2494 1591.5 2494 1600.61 2486.61 1608 2477.5 1608 2468.39 1608 2461 1600.61 2461 1591.5Z" fill-rule="evenodd"/></g></svg>