<svg width="2172" height="1798" xmlns="http://www.w3.org/2000/svg" xmlns:xlink="http://www.w3.org/1999/xlink" xml:space="preserve" overflow="hidden"><g transform="translate(-2226 -553)"><path d="M3550.86 2274.47C3548.1 2274.47 3545.63 2275.58 3543.44 2277.81 3541.25 2280.04 3539.53 2283.05 3538.27 2286.83 3537.02 2290.61 3536.39 2294.38 3536.39 2298.14 3536.39 2300.95 3536.77 2303.05 3537.54 2304.44 3538.31 2305.83 3539.6 2306.53 3541.42 2306.53 3542.25 2306.53 3543.1 2306.34 3543.97 2305.98 3544.83 2305.62 3545.73 2305.03 3546.66 2304.22 3547.6 2303.41 3548.51 2302.42 3549.42 2301.26 3550.32 2300.1 3551.16 2298.93 3551.91 2297.75 3552.67 2296.58 3553.37 2295.19 3554.02 2293.58 3554.67 2291.97 3555.22 2290.03 3555.68 2287.76L3556.05 2286.02C3556.45 2284.07 3556.65 2282.24 3556.65 2280.51 3556.65 2278.4 3556.21 2276.87 3555.32 2275.91 3554.42 2274.95 3552.94 2274.47 3550.86 2274.47ZM3567.84 2252.75 3570.23 2252.75 3560.14 2297.61C3559.54 2300.26 3559.25 2302.26 3559.25 2303.61 3559.25 2304.69 3559.42 2305.47 3559.77 2305.96 3560.13 2306.45 3560.68 2306.69 3561.44 2306.69 3562.25 2306.69 3563.11 2306.36 3564.03 2305.7 3564.95 2305.03 3566.25 2303.77 3567.92 2301.91L3570.23 2304.18C3567.74 2306.8 3565.65 2308.65 3563.95 2309.73 3562.25 2310.81 3560.41 2311.35 3558.44 2311.35 3556.76 2311.35 3555.42 2310.8 3554.42 2309.69 3553.42 2308.58 3552.93 2307.11 3552.93 2305.27 3552.93 2303.78 3553.24 2302.2 3553.86 2300.53L3553.33 2300.37C3550.74 2304.15 3548.28 2306.92 3545.95 2308.68 3543.63 2310.43 3541.17 2311.31 3538.58 2311.31 3535.61 2311.31 3533.3 2310.19 3531.67 2307.95 3530.03 2305.7 3529.22 2302.56 3529.22 2298.5 3529.22 2293.86 3530.13 2289.39 3531.95 2285.11 3533.78 2280.83 3536.28 2277.45 3539.47 2274.98 3542.66 2272.5 3546.21 2271.27 3550.13 2271.27 3551.78 2271.27 3553.3 2271.44 3554.69 2271.77 3556.08 2272.11 3557.5 2272.7 3558.96 2273.54L3561.07 2264.18C3561.29 2263.28 3561.48 2262.3 3561.64 2261.22 3561.8 2260.14 3561.88 2259.19 3561.88 2258.38 3561.88 2257.57 3561.73 2256.96 3561.44 2256.54 3561.14 2256.12 3560.71 2255.81 3560.16 2255.62 3559.61 2255.44 3558.61 2255.3 3557.18 2255.22L3557.67 2253.11Z" fill-rule="evenodd"/><text fill="#000000" fill-opacity="0" font-family="Arial,Arial_MSFontService,sans-serif" font-size="58.6025" x="3529.22" y="2304.02">𝑑</text><path d="M3585.74 2297.13C3586.83 2297.13 3587.72 2297.37 3588.42 2297.85 3589.11 2298.33 3589.69 2299.02 3590.15 2299.93 3590.6 2300.85 3590.98 2301.97 3591.28 2303.31 3591.58 2304.66 3591.89 2306.19 3592.23 2307.92L3592.62 2307.92C3593.81 2306.35 3594.84 2304.99 3595.72 2303.84 3596.59 2302.68 3597.37 2301.71 3598.05 2300.92 3598.74 2300.12 3599.35 2299.48 3599.9 2298.98 3600.45 2298.48 3600.98 2298.1 3601.49 2297.83 3602.01 2297.57 3602.54 2297.38 3603.09 2297.28 3603.63 2297.18 3604.24 2297.13 3604.92 2297.13 3605.91 2297.13 3606.82 2297.31 3607.63 2297.67L3606.14 2303.54 3603.67 2303.54C3603.61 2302.68 3603.29 2302.26 3602.72 2302.26 3602.5 2302.26 3602.26 2302.3 3602 2302.38 3601.74 2302.46 3601.43 2302.61 3601.08 2302.85 3600.72 2303.09 3600.31 2303.42 3599.84 2303.85 3599.37 2304.28 3598.82 2304.83 3598.19 2305.52 3597.55 2306.2 3596.83 2307.04 3596.01 2308.04 3595.2 2309.03 3594.27 2310.2 3593.21 2311.55 3593.75 2314.29 3594.21 2316.48 3594.6 2318.13 3594.99 2319.78 3595.36 2321.04 3595.72 2321.92 3596.07 2322.79 3596.43 2323.36 3596.79 2323.63 3597.15 2323.9 3597.55 2324.03 3598.01 2324.03 3598.35 2324.03 3598.66 2323.99 3598.95 2323.91 3599.24 2323.83 3599.53 2323.66 3599.84 2323.39 3600.15 2323.12 3600.49 2322.73 3600.87 2322.23 3601.25 2321.72 3601.69 2321.05 3602.21 2320.22L3604.44 2321.68C3603.57 2322.99 3602.79 2324.06 3602.12 2324.89 3601.44 2325.73 3600.79 2326.38 3600.15 2326.86 3599.52 2327.34 3598.86 2327.66 3598.19 2327.83 3597.51 2328 3596.74 2328.08 3595.86 2328.08 3595.11 2328.08 3594.44 2327.98 3593.84 2327.77 3593.24 2327.56 3592.73 2327.18 3592.29 2326.62 3591.99 2326.28 3591.71 2325.83 3591.46 2325.27 3591.2 2324.7 3590.96 2324.09 3590.74 2323.43 3590.52 2322.78 3590.32 2322.1 3590.15 2321.39 3589.97 2320.69 3589.82 2320.03 3589.7 2319.41 3589.58 2318.8 3589.49 2318.25 3589.42 2317.76 3589.35 2317.27 3589.3 2316.91 3589.28 2316.67L3588.95 2316.67C3587.76 2318.26 3586.73 2319.65 3585.84 2320.83 3584.96 2322.01 3584.16 2323.02 3583.44 2323.87 3582.73 2324.71 3582.08 2325.41 3581.51 2325.95 3580.93 2326.5 3580.37 2326.93 3579.81 2327.25 3579.25 2327.56 3578.68 2327.78 3578.1 2327.9 3577.51 2328.02 3576.86 2328.08 3576.15 2328.08 3575.11 2328.08 3574.23 2327.9 3573.5 2327.55L3574.87 2321.74 3577.4 2321.74C3577.46 2322.61 3577.79 2323.05 3578.38 2323.05 3578.6 2323.03 3578.81 2322.99 3579.02 2322.93 3579.23 2322.87 3579.47 2322.74 3579.75 2322.56 3580.03 2322.37 3580.38 2322.07 3580.81 2321.66 3581.24 2321.26 3581.78 2320.69 3582.43 2319.96 3583.09 2319.24 3583.89 2318.33 3584.84 2317.24 3585.8 2316.15 3586.94 2314.8 3588.27 2313.19 3587.91 2311.52 3587.6 2310.07 3587.33 2308.84 3587.06 2307.61 3586.81 2306.55 3586.59 2305.67 3586.36 2304.78 3586.14 2304.06 3585.92 2303.51 3585.7 2302.95 3585.47 2302.51 3585.25 2302.18 3585.02 2301.86 3584.77 2301.62 3584.5 2301.48 3584.23 2301.34 3583.92 2301.26 3583.56 2301.24 3583.23 2301.24 3582.91 2301.3 3582.63 2301.41 3582.34 2301.52 3582.04 2301.71 3581.73 2301.99 3581.42 2302.27 3581.09 2302.65 3580.72 2303.15 3580.35 2303.65 3579.93 2304.29 3579.45 2305.09L3577.16 2303.6C3577.97 2302.39 3578.71 2301.36 3579.36 2300.53 3580.02 2299.7 3580.66 2299.03 3581.3 2298.53 3581.94 2298.04 3582.61 2297.68 3583.31 2297.46 3584.02 2297.24 3584.82 2297.13 3585.74 2297.13Z" fill-rule="evenodd"/><text fill="#000000" fill-opacity="0" font-family="Arial,Arial_MSFontService,sans-serif" font-size="30.9468" x="3573.5" y="2324.21">𝑥</text><path d="M2952.63 2143.27 2342.51 1409.12 2350.44 1402.53 2960.56 2136.68ZM2337.88 1419.68 2330 1386 2361.67 1399.91Z"/><path d="M2957 2134.84 4185.06 2134.84 4185.06 2145.16 2957 2145.16ZM4179.9 2124.53 4210.84 2140 4179.9 2155.47Z"/><path d="M5.15625-1.24177e-06 5.1566 1472.77-5.1559 1472.77-5.15625 1.24177e-06ZM15.4691 1467.61 0.000360892 1498.55-15.4684 1467.61Z" transform="matrix(1 0 0 -1 2957 2139.55)"/><path d="M4289.54 2113.03C4290.38 2113.03 4291.12 2113.13 4291.75 2113.31 4292.39 2113.5 4292.95 2113.79 4293.43 2114.19 4293.92 2114.58 4294.35 2115.08 4294.73 2115.71 4295.11 2116.33 4295.47 2117.17 4295.82 2118.24 4296.17 2119.31 4296.51 2120.63 4296.82 2122.21 4297.13 2123.79 4297.4 2125.43 4297.65 2127.13L4298.05 2127.13C4300.65 2123.49 4302.61 2120.82 4303.95 2119.13 4305.29 2117.44 4306.41 2116.19 4307.33 2115.36 4308.25 2114.54 4309.14 2113.96 4309.99 2113.62 4310.84 2113.28 4311.97 2113.11 4313.37 2113.11 4314.64 2113.11 4315.68 2113.27 4316.49 2113.6L4314.87 2120.93 4312.03 2120.93C4311.87 2119.8 4311.4 2119.23 4310.62 2119.23 4310.37 2119.23 4310.12 2119.27 4309.85 2119.35 4309.58 2119.43 4309.24 2119.61 4308.85 2119.88 4308.46 2120.15 4307.89 2120.68 4307.13 2121.46 4306.37 2122.24 4305.52 2123.2 4304.58 2124.34 4303.63 2125.47 4302.66 2126.66 4301.66 2127.9L4298.9 2131.35C4299.39 2133.94 4299.85 2136.19 4300.28 2138.08 4300.71 2139.97 4301.1 2141.54 4301.44 2142.8 4301.77 2144.05 4302.07 2145.05 4302.33 2145.78 4302.58 2146.51 4302.86 2147.05 4303.16 2147.42 4303.46 2147.78 4303.76 2148.04 4304.07 2148.19 4304.38 2148.34 4304.74 2148.41 4305.14 2148.41 4305.87 2148.41 4306.58 2148.13 4307.27 2147.56 4307.96 2146.99 4308.95 2145.71 4310.25 2143.71L4312.89 2145.45C4310.99 2148.26 4309.29 2150.24 4307.76 2151.39 4306.23 2152.54 4304.42 2153.11 4302.31 2153.11 4301.15 2153.11 4300.16 2152.9 4299.35 2152.48 4298.54 2152.07 4297.84 2151.4 4297.24 2150.48 4296.65 2149.56 4296.12 2148.13 4295.66 2146.18 4294.82 2142.72 4294.31 2140.08 4294.12 2138.24L4293.72 2138.24C4290.85 2142.26 4288.72 2145.16 4287.33 2146.91 4285.94 2148.67 4284.79 2149.96 4283.89 2150.8 4282.98 2151.64 4282.1 2152.23 4281.25 2152.57 4280.4 2152.9 4279.27 2153.07 4277.87 2153.07 4276.6 2153.07 4275.56 2152.91 4274.75 2152.59L4276.37 2145.25 4279.21 2145.25C4279.37 2146.39 4279.84 2146.95 4280.63 2146.95 4281 2146.95 4281.4 2146.85 4281.82 2146.65 4282.24 2146.45 4282.84 2145.96 4283.62 2145.19 4284.41 2144.42 4285.49 2143.21 4286.87 2141.56 4288.24 2139.91 4290.24 2137.44 4292.86 2134.15 4292.46 2132.01 4292.04 2129.96 4291.61 2127.99 4291.18 2126.01 4290.73 2124.18 4290.27 2122.47 4289.81 2120.77 4289.43 2119.66 4289.14 2119.13 4288.84 2118.6 4288.52 2118.24 4288.18 2118.04 4287.85 2117.83 4287.42 2117.73 4286.91 2117.73 4286.34 2117.73 4285.83 2117.86 4285.37 2118.12 4284.91 2118.37 4284.41 2118.82 4283.87 2119.45 4283.33 2120.09 4282.61 2121.08 4281.72 2122.43L4279.09 2120.69C4280.79 2118.12 4282.42 2116.21 4283.99 2114.94 4285.56 2113.67 4287.41 2113.03 4289.54 2113.03Z" fill-rule="evenodd"/><text fill="#000000" fill-opacity="0" font-family="Arial,Arial_MSFontService,sans-serif" font-size="40.0815" x="4274.75" y="2148.1">𝑥</text><path d="M3056.97 622.998 3085.79 622.998 3086.56 625.024 3067.22 647.233C3063.47 651.529 3060.21 655.177 3057.46 658.176L3057.7 658.459 3066.86 658.459C3068.48 658.459 3069.72 658.371 3070.59 658.196 3071.45 658.02 3072.21 657.689 3072.86 657.203 3073.51 656.717 3074.17 655.98 3074.86 654.994 3075.55 654.008 3076.41 652.461 3077.44 650.354L3081.04 650.354 3078.57 661.742 3049.23 661.742 3048.46 659.756 3070.63 634.224C3073.76 630.63 3076.06 628.077 3077.52 626.564L3077.27 626.281 3067.79 626.281C3066.39 626.281 3065.36 626.375 3064.71 626.564 3064.06 626.753 3063.41 627.084 3062.77 627.557 3062.12 628.03 3061.42 628.732 3060.68 629.665 3059.94 630.597 3059.11 631.927 3058.19 633.657L3054.58 633.657Z" fill-rule="evenodd"/><text fill="#000000" fill-opacity="0" font-family="Arial,Arial_MSFontService,sans-serif" font-size="38.7441" x="3048.46" y="656.899">𝑧</text><path d="M2315.63 1295.05C2316.74 1295.05 2317.68 1295.2 2318.47 1295.49 2319.01 1295.71 2319.55 1296.07 2320.09 1296.57 2320.63 1297.07 2321.11 1297.76 2321.53 1298.65 2321.94 1299.55 2322.31 1300.55 2322.62 1301.65 2322.93 1302.76 2323.28 1304.36 2323.65 1306.44 2324.3 1309.92 2324.93 1313.59 2325.54 1317.44 2326.15 1321.29 2326.67 1324.86 2327.1 1328.16 2329.72 1324.38 2331.94 1320.67 2333.77 1317.05 2335.59 1313.43 2336.9 1310.29 2337.7 1307.61 2338.49 1304.94 2338.89 1302.76 2338.89 1301.09 2338.89 1299.82 2338.62 1298.95 2338.08 1298.49 2337.54 1298.03 2336.62 1297.76 2335.33 1297.68L2335.73 1295.7 2346.39 1295.7 2347.48 1297.72C2345.43 1303.34 2342.65 1309.35 2339.14 1315.76 2335.68 1322.03 2331.72 1328.27 2327.26 1334.48 2322.99 1340.4 2319.44 1344.68 2316.6 1347.33 2314.63 1349.14 2312.72 1350.43 2310.89 1351.22 2309.43 1351.81 2307.88 1352.11 2306.23 1352.11 2305.66 1352.11 2305 1352.06 2304.26 1351.97 2303.52 1351.87 2302.94 1351.75 2302.54 1351.58L2304.28 1343.72 2307.48 1343.72C2307.48 1345.45 2308.08 1346.31 2309.27 1346.31 2310.83 1346.31 2312.66 1345.34 2314.74 1343.38 2316.82 1341.42 2319.26 1338.47 2322.07 1334.52 2321.29 1329.79 2320.22 1324.09 2318.87 1317.42 2317.44 1310.29 2316.49 1305.87 2316.03 1304.17 2315.47 1302.11 2314.87 1300.8 2314.25 1300.23 2313.87 1299.88 2313.4 1299.71 2312.83 1299.71 2311.97 1299.71 2311.16 1300.06 2310.4 1300.76 2309.64 1301.46 2308.71 1302.68 2307.6 1304.41L2304.97 1302.67C2306.83 1299.88 2308.58 1297.92 2310.2 1296.77 2311.82 1295.62 2313.63 1295.05 2315.63 1295.05Z" fill-rule="evenodd"/><text fill="#000000" fill-opacity="0" font-family="Arial,Arial_MSFontService,sans-serif" font-size="57.0625" x="2302.54" y="1344.98">𝑦</text><path d="M0 0 17.1785 1374.58" stroke="#5B9BD5" stroke-width="4.58333" stroke-miterlimit="8" fill="none" fill-rule="evenodd" transform="matrix(1 0 0 -1 4017.5 1930.08)"/><path d="M3049.58 2171.38C3048.31 2177.25 3047.67 2182.18 3047.67 2186.18 3047.67 2189.2 3048.13 2191.43 3049.05 2192.84 3049.97 2194.26 3051.46 2194.97 3053.51 2194.97 3056.54 2194.97 3059.41 2192.94 3062.12 2188.87 3064.84 2184.81 3067.14 2178.98 3069.03 2171.38ZM3066.19 2144.07C3063.03 2144.07 3060.11 2146.07 3057.42 2150.07 3054.73 2154.07 3052.44 2159.79 3050.55 2167.25L3069.96 2167.25C3071.23 2161.55 3071.87 2156.65 3071.87 2152.54 3071.87 2149.7 3071.41 2147.58 3070.49 2146.18 3069.57 2144.77 3068.14 2144.07 3066.19 2144.07ZM3066.68 2140.79C3074.52 2140.79 3078.43 2145.76 3078.43 2155.7 3078.43 2158.51 3078.12 2161.87 3077.48 2165.77 3076.85 2169.68 3075.84 2173.65 3074.46 2177.71 3073.08 2181.76 3071.34 2185.35 3069.23 2188.47 3067.13 2191.59 3064.7 2194 3061.94 2195.7 3059.18 2197.4 3056.21 2198.25 3053.02 2198.25 3049 2198.25 3046 2197.02 3044.03 2194.57 3042.05 2192.11 3041.07 2188.42 3041.07 2183.5 3041.07 2180.83 3041.36 2177.53 3041.96 2173.61 3042.55 2169.7 3043.53 2165.69 3044.9 2161.6 3046.26 2157.5 3048.02 2153.87 3050.17 2150.7 3052.31 2147.52 3054.79 2145.08 3057.58 2143.36 3060.38 2141.64 3063.41 2140.79 3066.68 2140.79Z" fill="#FF0000" fill-rule="evenodd"/><text fill="#000000" fill-opacity="0" font-family="Arial,Arial_MSFontService,sans-serif" font-size="57.4678" x="3041.07" y="2191.07">𝜃</text><path d="M2809.09 1707C2804.31 1707.25 2800.17 1709.31 2796.67 1713.2 2793.17 1717.09 2791.42 1721.89 2791.42 1727.59 2791.42 1731.1 2792.35 1734.05 2794.22 1736.43 2796.08 1738.8 2798.58 1740.14 2801.71 1740.44ZM2815.49 1706.92 2808.12 1740.4C2811.41 1740.26 2814.41 1739.28 2817.11 1737.44 2819.82 1735.6 2821.94 1733.12 2823.48 1729.98 2825.02 1726.85 2825.79 1723.44 2825.79 1719.77 2825.79 1717.61 2825.41 1715.59 2824.65 1713.73 2823.89 1711.87 2822.73 1710.32 2821.15 1709.09 2819.57 1707.86 2817.68 1707.14 2815.49 1706.92ZM2813.63 1686.29 2820.03 1686.29 2816.22 1703.68C2821.68 1704.08 2825.83 1705.68 2828.68 1708.46 2831.53 1711.24 2832.96 1715.01 2832.96 1719.77 2832.96 1723.36 2832.32 1726.62 2831.05 1729.56 2829.78 1732.49 2827.92 1735.05 2825.46 1737.26 2823 1739.46 2820.38 1741.08 2817.58 1742.12 2814.78 1743.16 2811.37 1743.68 2807.35 1743.68L2803.66 1760.54 2797.25 1760.54 2800.94 1743.68C2795.59 1743.27 2791.48 1741.67 2788.6 1738.88 2785.72 1736.08 2784.29 1732.29 2784.29 1727.51 2784.29 1723.43 2785.35 1719.57 2787.47 1715.94 2789.59 1712.31 2792.53 1709.37 2796.3 1707.14 2800.07 1704.92 2804.59 1703.76 2809.86 1703.68Z" fill="#0000FF" fill-rule="evenodd"/><text fill="#000000" fill-opacity="0" font-family="Arial,Arial_MSFontService,sans-serif" font-size="74.2461" x="2784.29" y="1751.26">𝜙</text><path d="M3462.92 2214.85 3691.77 2214.85 3691.77 2217.15 3462.92 2217.15ZM3467.5 2229.75 3440 2216 3467.5 2202.25ZM3687.18 2202.25 3714.68 2216 3687.18 2229.75Z"/><path d="M3802.85 2116.77 3802.85 1887.92 3805.15 1887.92 3805.15 2116.77ZM3817.75 2112.18 3804 2139.68 3790.25 2112.18ZM3790.25 1892.5 3804 1865 3817.75 1892.5Z"/><path d="M3891.12 1977.28C3888.36 1977.28 3885.89 1978.4 3883.7 1980.62 3881.52 1982.85 3879.79 1985.86 3878.54 1989.64 3877.28 1993.42 3876.65 1997.19 3876.65 2000.95 3876.65 2003.76 3877.04 2005.86 3877.81 2007.25 3878.58 2008.64 3879.87 2009.34 3881.68 2009.34 3882.52 2009.34 3883.37 2009.16 3884.23 2008.79 3885.1 2008.43 3885.99 2007.84 3886.93 2007.03 3887.86 2006.22 3888.78 2005.23 3889.68 2004.07 3890.59 2002.91 3891.42 2001.74 3892.17 2000.56 3892.93 1999.39 3893.63 1998 3894.28 1996.39 3894.93 1994.78 3895.48 1992.84 3895.94 1990.57L3896.31 1988.83C3896.71 1986.89 3896.92 1985.05 3896.92 1983.32 3896.92 1981.21 3896.47 1979.68 3895.58 1978.72 3894.69 1977.76 3893.2 1977.28 3891.12 1977.28ZM3908.1 1955.56 3910.49 1955.56 3900.4 2000.42C3899.81 2003.07 3899.51 2005.07 3899.51 2006.42 3899.51 2007.5 3899.69 2008.28 3900.04 2008.77 3900.39 2009.26 3900.94 2009.5 3901.7 2009.5 3902.51 2009.5 3903.37 2009.17 3904.29 2008.51 3905.21 2007.85 3906.51 2006.58 3908.18 2004.72L3910.49 2006.99C3908.01 2009.61 3905.91 2011.46 3904.21 2012.54 3902.51 2013.62 3900.67 2014.16 3898.7 2014.16 3897.02 2014.16 3895.69 2013.61 3894.69 2012.5 3893.69 2011.39 3893.19 2009.92 3893.19 2008.08 3893.19 2006.6 3893.5 2005.02 3894.12 2003.34L3893.59 2003.18C3891 2006.96 3888.54 2009.73 3886.22 2011.49 3883.89 2013.24 3881.43 2014.12 3878.84 2014.12 3875.87 2014.12 3873.57 2013 3871.93 2010.76 3870.3 2008.51 3869.48 2005.37 3869.48 2001.31 3869.48 1996.67 3870.39 1992.2 3872.21 1987.92 3874.04 1983.64 3876.54 1980.26 3879.73 1977.79 3882.92 1975.32 3886.47 1974.08 3890.39 1974.08 3892.04 1974.08 3893.56 1974.25 3894.95 1974.59 3896.34 1974.92 3897.77 1975.51 3899.23 1976.35L3901.33 1966.99C3901.55 1966.1 3901.74 1965.11 3901.9 1964.03 3902.06 1962.95 3902.14 1962 3902.14 1961.19 3902.14 1960.38 3902 1959.77 3901.7 1959.35 3901.4 1958.93 3900.98 1958.62 3900.42 1958.44 3899.87 1958.25 3898.87 1958.11 3897.44 1958.03L3897.93 1955.92Z" fill-rule="evenodd"/><text fill="#000000" fill-opacity="0" font-family="Arial,Arial_MSFontService,sans-serif" font-size="58.6025" x="3869.48" y="2006.84">𝑑</text><path d="M3920.22 2000.57 3943.39 2000.57 3944.11 2002.36C3942.8 2003.81 3941.55 2005.19 3940.37 2006.5 3939.19 2007.81 3938.02 2009.1 3936.86 2010.37 3935.7 2011.64 3934.53 2012.91 3933.37 2014.17 3932.21 2015.43 3931 2016.74 3929.75 2018.1 3928.5 2019.46 3927.19 2020.89 3925.82 2022.39 3924.45 2023.89 3922.98 2025.5 3921.41 2027.23 3921.49 2027.31 3921.55 2027.36 3921.59 2027.38L3928.92 2027.38C3929.67 2027.38 3930.33 2027.37 3930.88 2027.36 3931.44 2027.35 3931.93 2027.3 3932.34 2027.2 3932.76 2027.1 3933.14 2026.94 3933.49 2026.71 3933.84 2026.48 3934.18 2026.14 3934.52 2025.69 3934.86 2025.25 3935.21 2024.68 3935.59 2023.98 3935.97 2023.29 3936.41 2022.42 3936.93 2021.39L3940 2021.39 3938.09 2030.36 3914.44 2030.36 3913.64 2028.57C3915.55 2026.46 3917.53 2024.28 3919.58 2022.02 3921.64 2019.75 3923.66 2017.53 3925.66 2015.34 3927.65 2013.16 3929.57 2011.07 3931.42 2009.07 3933.27 2007.08 3934.94 2005.29 3936.42 2003.7 3936.35 2003.62 3936.29 2003.57 3936.25 2003.55L3928.59 2003.55C3927.72 2003.55 3926.97 2003.62 3926.36 2003.76 3925.74 2003.9 3925.18 2004.17 3924.66 2004.56 3924.14 2004.96 3923.64 2005.52 3923.14 2006.23 3922.64 2006.94 3922.07 2007.89 3921.41 2009.06L3918.38 2009.06Z" fill-rule="evenodd"/><text fill="#000000" fill-opacity="0" font-family="Arial,Arial_MSFontService,sans-serif" font-size="29.7852" x="3913.64" y="2026.63">𝑧</text><path d="M0 85.9999 43 0 85.9999 85.9999Z" stroke="#385723" stroke-width="3.4375" stroke-miterlimit="8" fill="#70AD47" fill-rule="evenodd" transform="matrix(1 0 0 -1 2913.5 1356.5)"/><path d="M2956.5 1270.5 2956.5 1400.42" stroke="#385723" stroke-width="3.4375" stroke-miterlimit="8" fill="none" fill-rule="evenodd"/><path d="M0 85.9999 43.0001 0 86.0003 85.9999Z" stroke="#385723" stroke-width="3.4375" stroke-miterlimit="8" fill="#70AD47" fill-rule="evenodd" transform="matrix(1 0 0 -1 3653.5 1356.5)"/><path d="M3696.5 1270.5 3696.5 1400.42" stroke="#385723" stroke-width="3.4375" stroke-miterlimit="8" fill="none" fill-rule="evenodd"/><path d="M0 85.9999 43 0 85.9999 85.9999Z" stroke="#385723" stroke-width="3.4375" stroke-miterlimit="8" fill="#70AD47" fill-rule="evenodd" transform="matrix(1 0 0 -1 3161.5 1356.5)"/><path d="M3204.5 1270.5 3204.5 1400.42" stroke="#385723" stroke-width="3.4375" stroke-miterlimit="8" fill="none" fill-rule="evenodd"/><path d="M0 85.9999 43 0 85.9999 85.9999Z" stroke="#385723" stroke-width="3.4375" stroke-miterlimit="8" fill="#70AD47" fill-rule="evenodd" transform="matrix(1 0 0 -1 3407.5 1356.5)"/><path d="M3450.5 1270.5 3450.5 1400.42" stroke="#385723" stroke-width="3.4375" stroke-miterlimit="8" fill="none" fill-rule="evenodd"/><path d="M0 85.9999 43 0 85.9999 85.9999Z" stroke="#385723" stroke-width="3.4375" stroke-miterlimit="8" fill="#70AD47" fill-rule="evenodd" transform="matrix(1 0 0 -1 2913.5 1603.5)"/><path d="M2956.5 1517.5 2956.5 1647.42" stroke="#385723" stroke-width="3.4375" stroke-miterlimit="8" fill="none" fill-rule="evenodd"/><path d="M0 85.9999 43.0001 0 86.0003 85.9999Z" stroke="#385723" stroke-width="3.4375" stroke-miterlimit="8" fill="#70AD47" fill-rule="evenodd" transform="matrix(1 0 0 -1 3653.5 1603.5)"/><path d="M3696.5 1517.5 3696.5 1647.42" stroke="#385723" stroke-width="3.4375" stroke-miterlimit="8" fill="none" fill-rule="evenodd"/><path d="M0 85.9999 43 0 85.9999 85.9999Z" stroke="#385723" stroke-width="3.4375" stroke-miterlimit="8" fill="#70AD47" fill-rule="evenodd" transform="matrix(1 0 0 -1 3161.5 1603.5)"/><path d="M3204.5 1517.5 3204.5 1647.42" stroke="#385723" stroke-width="3.4375" stroke-miterlimit="8" fill="none" fill-rule="evenodd"/><path d="M0 85.9999 43 0 85.9999 85.9999Z" stroke="#385723" stroke-width="3.4375" stroke-miterlimit="8" fill="#70AD47" fill-rule="evenodd" transform="matrix(1 0 0 -1 3407.5 1603.5)"/><path d="M3450.5 1517.5 3450.5 1647.42" stroke="#385723" stroke-width="3.4375" stroke-miterlimit="8" fill="none" fill-rule="evenodd"/><path d="M0 85.9999 43 0 85.9999 85.9999Z" stroke="#385723" stroke-width="3.4375" stroke-miterlimit="8" fill="#70AD47" fill-rule="evenodd" transform="matrix(1 0 0 -1 2913.5 1849.5)"/><path d="M2956.5 1763.5 2956.5 1893.42" stroke="#385723" stroke-width="3.4375" stroke-miterlimit="8" fill="none" fill-rule="evenodd"/><path d="M0 85.9999 43.0001 0 86.0003 85.9999Z" stroke="#385723" stroke-width="3.4375" stroke-miterlimit="8" fill="#70AD47" fill-rule="evenodd" transform="matrix(1 0 0 -1 3653.5 1849.5)"/><path d="M3696.5 1763.5 3696.5 1893.42" stroke="#385723" stroke-width="3.4375" stroke-miterlimit="8" fill="none" fill-rule="evenodd"/><path d="M0 85.9999 43 0 85.9999 85.9999Z" stroke="#385723" stroke-width="3.4375" stroke-miterlimit="8" fill="#70AD47" fill-rule="evenodd" transform="matrix(1 0 0 -1 3161.5 1849.5)"/><path d="M3204.5 1763.5 3204.5 1893.42" stroke="#385723" stroke-width="3.4375" stroke-miterlimit="8" fill="none" fill-rule="evenodd"/><path d="M0 85.9999 43 0 85.9999 85.9999Z" stroke="#385723" stroke-width="3.4375" stroke-miterlimit="8" fill="#70AD47" fill-rule="evenodd" transform="matrix(1 0 0 -1 3407.5 1849.5)"/><path d="M3450.5 1763.5 3450.5 1893.42" stroke="#385723" stroke-width="3.4375" stroke-miterlimit="8" fill="none" fill-rule="evenodd"/><path d="M0 85.9999 43 0 85.9999 85.9999Z" stroke="#385723" stroke-width="3.4375" stroke-miterlimit="8" fill="#70AD47" fill-rule="evenodd" transform="matrix(1 0 0 -1 2913.5 2096.5)"/><path d="M2956.5 2010.5 2956.5 2140.42" stroke="#385723" stroke-width="3.4375" stroke-miterlimit="8" fill="none" fill-rule="evenodd"/><path d="M0 85.9999 43.0001 0 86.0003 85.9999Z" stroke="#385723" stroke-width="3.4375" stroke-miterlimit="8" fill="#70AD47" fill-rule="evenodd" transform="matrix(1 0 0 -1 3653.5 2096.5)"/><path d="M3696.5 2010.5 3696.5 2140.42" stroke="#385723" stroke-width="3.4375" stroke-miterlimit="8" fill="none" fill-rule="evenodd"/><path d="M0 85.9999 43 0 85.9999 85.9999Z" stroke="#385723" stroke-width="3.4375" stroke-miterlimit="8" fill="#70AD47" fill-rule="evenodd" transform="matrix(1 0 0 -1 3161.5 2096.5)"/><path d="M3204.5 2010.5 3204.5 2140.42" stroke="#385723" stroke-width="3.4375" stroke-miterlimit="8" fill="none" fill-rule="evenodd"/><path d="M0 85.9999 43 0 85.9999 85.9999Z" stroke="#385723" stroke-width="3.4375" stroke-miterlimit="8" fill="#70AD47" fill-rule="evenodd" transform="matrix(1 0 0 -1 3407.5 2096.5)"/><path d="M3450.5 2010.5 3450.5 2140.42" stroke="#385723" stroke-width="3.4375" stroke-miterlimit="8" fill="none" fill-rule="evenodd"/><path d="M2.84741-1.92579 1036.66 1526.63 1030.96 1530.48-2.84741 1.92579ZM1042.63 1517.06 1046.64 1547.54 1019.85 1532.46Z" fill="#5B9BD5" transform="matrix(-1 0 0 1 4034.14 555.5)"/><path d="M0 0 1069.3 204.825" stroke="#5B9BD5" stroke-width="4.58333" stroke-miterlimit="8" fill="none" fill-rule="evenodd" transform="matrix(1 0 0 -1 2956.5 2134.33)"/><path d="M3510.78 1150.3C3508.73 1150.3 3507.35 1150.32 3506.65 1150.38L3501.9 1172.3 3504.46 1172.3C3507.94 1172.3 3510.67 1171.77 3512.62 1170.7 3514.58 1169.64 3516.14 1168.01 3517.31 1165.82 3518.47 1163.63 3519.05 1161.06 3519.05 1158.12 3519.05 1155.5 3518.39 1153.54 3517.06 1152.24 3515.74 1150.95 3513.64 1150.3 3510.78 1150.3ZM3490.96 1145.56 3511.19 1145.56C3514 1145.56 3516.29 1145.64 3518.05 1145.82 3519.82 1146 3521.55 1146.4 3523.24 1147.04 3524.93 1147.67 3526.33 1148.49 3527.44 1149.49 3528.54 1150.49 3529.4 1151.7 3529.99 1153.11 3530.58 1154.53 3530.88 1156.16 3530.88 1158 3530.88 1162.08 3529.68 1165.54 3527.27 1168.37 3524.87 1171.21 3521.21 1173.48 3516.29 1175.18L3516.33 1175.55C3517.95 1176.87 3519.14 1178.15 3519.88 1179.38 3520.62 1180.61 3521.25 1182.4 3521.76 1184.75L3522.94 1190.42C3523.37 1192.47 3523.78 1193.94 3524.17 1194.82 3524.57 1195.7 3525.09 1196.41 3525.76 1196.96 3526.42 1197.52 3527.33 1197.93 3528.49 1198.2L3527.92 1200.88 3513.46 1200.88C3512.56 1198.34 3511.78 1195.32 3511.1 1191.84L3509.81 1185.11C3509.43 1183.08 3508.98 1181.49 3508.47 1180.33 3507.96 1179.17 3507.31 1178.33 3506.52 1177.82 3505.74 1177.3 3504.69 1177.05 3503.36 1177.05L3500.85 1177.05 3497.93 1189.93C3497.74 1190.83 3497.61 1191.6 3497.53 1192.24 3497.45 1192.89 3497.41 1193.7 3497.41 1194.68 3497.41 1195.92 3497.72 1196.8 3498.36 1197.31 3498.99 1197.82 3499.99 1198.12 3501.34 1198.2L3500.77 1200.88 3479.82 1200.88 3480.38 1198.2C3481.92 1197.77 3483.06 1197.01 3483.79 1195.93 3484.52 1194.85 3485.21 1192.85 3485.86 1189.93L3493.23 1156.5C3493.58 1154.9 3493.76 1153.32 3493.76 1151.76 3493.76 1150.62 3493.5 1149.79 3492.97 1149.26 3492.44 1148.74 3491.58 1148.39 3490.4 1148.23Z" fill="#4472C4" fill-rule="evenodd"/><text fill="#000000" fill-opacity="0" font-family="Arial,Arial_MSFontService,sans-serif" font-size="55.3198" x="3479.82" y="1193.96">𝑹</text><path d="M3089.92 2000.15 3098.84 2007.35 3104.83 2013.5 3110.36 2019.99 3115.44 2026.83 3120.04 2033.97 3124.16 2041.41 3127.78 2049.12 3130.89 2057.06 3133.46 2065.22 3135.49 2073.57 3136.95 2082.08 3137.85 2090.73 3138.15 2099.46 3135.85 2099.54 3135.56 2090.85 3135.56 2090.93 3134.68 2082.35 3134.69 2082.43 3133.24 2073.99 3133.25 2074.07 3131.24 2065.8 3131.26 2065.87 3128.71 2057.79 3128.74 2057.86 3125.66 2049.99 3125.69 2050.06 3122.11 2042.42 3122.14 2042.49 3118.06 2035.12 3118.1 2035.18 3113.53 2028.1 3113.58 2028.16 3108.55 2021.39 3108.59 2021.45 3103.11 2015.02 3103.16 2015.07 3097.25 2009 3097.35 2009.09 3088.48 2001.93ZM3085.18 2014.96 3070.33 1988.04 3100.78 1992.32Z" fill="#FF0000"/><path d="M2770.75 1914.76 2782.26 1905.52 2794.13 1896.95 2806.31 1889.06 2818.75 1881.85 2831.45 1875.33 2844.38 1869.48 2857.5 1864.31 2870.8 1859.82 2884.25 1855.99 2897.82 1852.84 2911.49 1850.35 2925.24 1848.53 2939.02 1847.37 2952.84 1846.87 2966.64 1847.03 2980.42 1847.85 2994.14 1849.32 3007.79 1851.45 3021.32 1854.22 3034.73 1857.65 3047.98 1861.72 3061.05 1866.43 3073.91 1871.79 3086.53 1877.79 3098.9 1884.42 3110.99 1891.69 3122.76 1899.6 3134.2 1908.13 3145.28 1917.3 3155.98 1927.09 3166.26 1937.51 3176.11 1948.55 3187.5 1962.89 3197.93 1977.89 3207.36 1993.49 3215.77 2009.64 3223.14 2026.29 3229.45 2043.4 3233.13 2056.42 3230.93 2057.05 3227.26 2044.06 3227.29 2044.15 3221.01 2027.12 3221.03 2027.18 3213.69 2010.6 3213.72 2010.67 3205.34 1994.58 3205.38 1994.65 3195.98 1979.11 3196.02 1979.17 3185.64 1964.23 3185.68 1964.29 3174.33 1950 3174.38 1950.05 3164.57 1939.05 3164.61 1939.09 3154.37 1928.72 3154.41 1928.76 3143.76 1919.01 3143.8 1919.04 3132.77 1909.92 3132.81 1909.95 3121.42 1901.45 3121.46 1901.48 3109.73 1893.61 3109.78 1893.64 3097.75 1886.4 3097.79 1886.43 3085.48 1879.82 3085.53 1879.84 3072.95 1873.87 3073 1873.89 3060.19 1868.56 3060.24 1868.58 3047.23 1863.88 3047.28 1863.9 3034.08 1859.85 3034.14 1859.86 3020.78 1856.45 3020.84 1856.46 3007.35 1853.7 3007.41 1853.71 2993.82 1851.59 2993.87 1851.6 2980.2 1850.13 2980.26 1850.13 2966.53 1849.32 2966.59 1849.32 2952.84 1849.16 2952.89 1849.16 2939.13 1849.66 2939.19 1849.65 2925.45 1850.81 2925.51 1850.8 2911.82 1852.62 2911.88 1852.61 2898.26 1855.09 2898.32 1855.07 2884.8 1858.22 2884.85 1858.2 2871.46 1862.01 2871.51 1862 2858.26 1866.47 2858.32 1866.45 2845.25 1871.6 2845.3 1871.58 2832.42 1877.41 2832.48 1877.38 2819.83 1883.88 2819.88 1883.85 2807.48 1891.03 2807.53 1891 2795.41 1898.85 2795.45 1898.82 2783.63 1907.36 2783.68 1907.32 2772.18 1916.54ZM3244.24 2048.92 3237.64 2078.95 3217.58 2055.66Z" fill="#0000FF"/></g></svg>